<svg width="100" height="100" viewBox="0 0 100 100" fill="none" xmlns="http://www.w3.org/2000/svg">
<path d="M19.1579 8.81818L25.9079 19.7102H26.1125L32.8625 8.81818H36.5954L28.3625 21.9091L36.5954 35H32.8625L26.1125 24.3125H25.9079L19.1579 35H15.425L23.8625 21.9091L15.425 8.81818H19.1579Z" fill="#0500FF"/>
<path d="M69.1579 64.8182L75.9079 75.7102H76.1125L82.8625 64.8182H86.5954L78.3625 77.9091L86.5954 91H82.8625L76.1125 80.3125H75.9079L69.1579 91H65.425L73.8625 77.9091L65.425 64.8182H69.1579Z" fill="#0500FF"/>
<path d="M87.5526 21.9091C87.5526 24.6705 87.054 27.0568 86.0569 29.0682C85.0597 31.0795 83.6918 32.6307 81.9532 33.7216C80.2146 34.8125 78.2288 35.358 75.9958 35.358C73.7629 35.358 71.7771 34.8125 70.0384 33.7216C68.2998 32.6307 66.9319 31.0795 65.9347 29.0682C64.9376 27.0568 64.439 24.6705 64.439 21.9091C64.439 19.1477 64.9376 16.7614 65.9347 14.75C66.9319 12.7386 68.2998 11.1875 70.0384 10.0966C71.7771 9.00568 73.7629 8.46023 75.9958 8.46023C78.2288 8.46023 80.2146 9.00568 81.9532 10.0966C83.6918 11.1875 85.0597 12.7386 86.0569 14.75C87.054 16.7614 87.5526 19.1477 87.5526 21.9091ZM84.4844 21.9091C84.4844 19.642 84.1052 17.7287 83.3467 16.169C82.5967 14.6094 81.5782 13.429 80.2913 12.6278C79.0129 11.8267 77.581 11.4261 75.9958 11.4261C74.4106 11.4261 72.9745 11.8267 71.6876 12.6278C70.4092 13.429 69.3907 14.6094 68.6322 16.169C67.8822 17.7287 67.5072 19.642 67.5072 21.9091C67.5072 24.1761 67.8822 26.0895 68.6322 27.6491C69.3907 29.2088 70.4092 30.3892 71.6876 31.1903C72.9745 31.9915 74.4106 32.392 75.9958 32.392C77.581 32.392 79.0129 31.9915 80.2913 31.1903C81.5782 30.3892 82.5967 29.2088 83.3467 27.6491C84.1052 26.0895 84.4844 24.1761 84.4844 21.9091Z" fill="#FF0000"/>
<path d="M37.5526 77.9091C37.5526 80.6705 37.054 83.0568 36.0569 85.0682C35.0597 87.0795 33.6918 88.6307 31.9532 89.7216C30.2146 90.8125 28.2288 91.358 25.9958 91.358C23.7629 91.358 21.7771 90.8125 20.0384 89.7216C18.2998 88.6307 16.9319 87.0795 15.9347 85.0682C14.9376 83.0568 14.439 80.6705 14.439 77.9091C14.439 75.1477 14.9376 72.7614 15.9347 70.75C16.9319 68.7386 18.2998 67.1875 20.0384 66.0966C21.7771 65.0057 23.7629 64.4602 25.9958 64.4602C28.2288 64.4602 30.2146 65.0057 31.9532 66.0966C33.6918 67.1875 35.0597 68.7386 36.0569 70.75C37.054 72.7614 37.5526 75.1477 37.5526 77.9091ZM34.4844 77.9091C34.4844 75.642 34.1052 73.7287 33.3467 72.169C32.5967 70.6094 31.5782 69.429 30.2913 68.6278C29.0129 67.8267 27.581 67.4261 25.9958 67.4261C24.4106 67.4261 22.9745 67.8267 21.6876 68.6278C20.4092 69.429 19.3907 70.6094 18.6322 72.169C17.8822 73.7287 17.5072 75.642 17.5072 77.9091C17.5072 80.1761 17.8822 82.0895 18.6322 83.6491C19.3907 85.2088 20.4092 86.3892 21.6876 87.1903C22.9745 87.9915 24.4106 88.392 25.9958 88.392C27.581 88.392 29.0129 87.9915 30.2913 87.1903C31.5782 86.3892 32.5967 85.2088 33.3467 83.6491C34.1052 82.0895 34.4844 80.1761 34.4844 77.9091Z" fill="#FF0000"/>
<line y1="49.5" x2="100" y2="49.5" stroke="black"/>
<line x1="50.5022" y1="100" x2="50.5022" stroke="black"/>
</svg>
