<svg width="28" height="28" viewBox="0 0 28 28" fill="none" xmlns="http://www.w3.org/2000/svg">
<path d="M10.78 28L10.08 23.59C9.63667 23.4267 9.17 23.205 8.68 22.925C8.19 22.645 7.75833 22.3533 7.385 22.05L3.255 23.94L0 18.2L3.78 15.435C3.73333 15.225 3.70417 14.9858 3.6925 14.7175C3.68083 14.4492 3.675 14.21 3.675 14C3.675 13.79 3.68083 13.5508 3.6925 13.2825C3.70417 13.0142 3.73333 12.775 3.78 12.565L0 9.8L3.255 4.06L7.385 5.95C7.75833 5.64667 8.19 5.355 8.68 5.075C9.17 4.795 9.63667 4.585 10.08 4.445L10.78 0H17.22L17.92 4.41C18.3633 4.57333 18.8358 4.78917 19.3375 5.0575C19.8392 5.32583 20.265 5.62333 20.615 5.95L24.745 4.06L28 9.8L24.22 12.495C24.2667 12.7283 24.2958 12.9792 24.3075 13.2475C24.3192 13.5158 24.325 13.7667 24.325 14C24.325 14.2333 24.3192 14.4783 24.3075 14.735C24.2958 14.9917 24.2667 15.2367 24.22 15.47L28 18.2L24.745 23.94L20.615 22.05C20.2417 22.3533 19.8158 22.6508 19.3375 22.9425C18.8592 23.2342 18.3867 23.45 17.92 23.59L17.22 28H10.78ZM14 18.55C15.26 18.55 16.3333 18.1067 17.22 17.22C18.1067 16.3333 18.55 15.26 18.55 14C18.55 12.74 18.1067 11.6667 17.22 10.78C16.3333 9.89333 15.26 9.45 14 9.45C12.74 9.45 11.6667 9.89333 10.78 10.78C9.89333 11.6667 9.45 12.74 9.45 14C9.45 15.26 9.89333 16.3333 10.78 17.22C11.6667 18.1067 12.74 18.55 14 18.55ZM14 16.45C13.3233 16.45 12.7458 16.2108 12.2675 15.7325C11.7892 15.2542 11.55 14.6767 11.55 14C11.55 13.3233 11.7892 12.7458 12.2675 12.2675C12.7458 11.7892 13.3233 11.55 14 11.55C14.6767 11.55 15.2542 11.7892 15.7325 12.2675C16.2108 12.7458 16.45 13.3233 16.45 14C16.45 14.6767 16.2108 15.2542 15.7325 15.7325C15.2542 16.2108 14.6767 16.45 14 16.45ZM12.46 25.9H15.54L16.03 21.98C16.8 21.7933 17.5292 21.5017 18.2175 21.105C18.9058 20.7083 19.53 20.23 20.09 19.67L23.8 21.28L25.2 18.76L21.91 16.345C22.0033 15.9483 22.0792 15.5575 22.1375 15.1725C22.1958 14.7875 22.225 14.3967 22.225 14C22.225 13.6033 22.2017 13.2125 22.155 12.8275C22.1083 12.4425 22.0267 12.0517 21.91 11.655L25.2 9.24L23.8 6.72L20.09 8.33C19.5533 7.72333 18.9467 7.21583 18.27 6.8075C17.5933 6.39917 16.8467 6.13667 16.03 6.02L15.54 2.1H12.46L11.97 6.02C11.1767 6.18333 10.4358 6.46333 9.7475 6.86C9.05917 7.25667 8.44667 7.74667 7.91 8.33L4.2 6.72L2.8 9.24L6.09 11.655C5.99667 12.0517 5.92083 12.4425 5.8625 12.8275C5.80417 13.2125 5.775 13.6033 5.775 14C5.775 14.3967 5.80417 14.7875 5.8625 15.1725C5.92083 15.5575 5.99667 15.9483 6.09 16.345L2.8 18.76L4.2 21.28L7.91 19.67C8.47 20.23 9.09417 20.7083 9.7825 21.105C10.4708 21.5017 11.2 21.7933 11.97 21.98L12.46 25.9Z" fill="#606060"/>
</svg>
